<svg xmlns="http://www.w3.org/2000/svg" viewBox="226 191 827 910">
  <path fill="#FFFFFF" d="M558.000854,212.042587 C558.760986,212.018738 559.521057,211.994904 561.030579,211.852295 C567.087524,210.834610 572.395020,209.935699 578.202942,208.952026 C577.804565,211.275467 577.606506,212.736450 577.299377,214.174088 C573.622009,231.385712 569.948120,248.598129 566.234070,265.801849 C561.540161,287.544678 556.809875,309.279602 551.906677,331.335571 C551.354675,333.373260 550.991272,335.093292 550.381775,337.087555 C550.010742,339.871582 549.885803,342.381317 549.472900,344.963318 C548.841736,345.690582 548.498535,346.345642 548.060181,347.356445 C547.769348,349.157837 547.573792,350.603455 547.194214,352.414612 C546.716675,354.363556 546.423218,355.946930 545.969055,357.876678 C545.329041,360.523865 544.849731,362.824646 544.225952,365.364685 C543.927979,366.336823 543.774536,367.069702 543.369812,368.102356 C542.855286,370.214630 542.592163,372.027222 542.153564,374.120361 C541.679321,375.936188 541.380432,377.471436 540.912842,379.313263 C540.552979,380.762054 540.361755,381.904297 539.968018,383.355103 C539.383667,385.379120 539.001770,387.094513 538.366333,389.116943 C537.794617,391.530243 537.476440,393.636505 536.968262,396.029297 C535.662781,401.219086 534.547241,406.122314 533.248535,411.397644 C532.906494,412.857788 532.747742,413.945831 532.401611,415.328339 C531.056519,421.055939 529.898682,426.489075 528.530640,432.230835 C528.100647,434.030212 527.880859,435.520935 527.472900,437.323425 C526.774048,439.964050 526.263367,442.292999 525.533936,445.619141 C530.809143,443.238403 535.186523,441.262848 539.872803,439.266113 C540.896240,438.884247 541.610901,438.523560 542.695557,438.148254 C548.378296,436.374481 553.691162,434.615295 559.321655,432.877563 C560.426208,432.600555 561.213135,432.302124 562.377563,432.038513 C564.871643,431.570953 566.988098,431.068542 569.517761,430.522125 C571.277161,430.179474 572.623413,429.880798 574.360107,429.599945 C577.499023,429.072235 580.247559,428.526672 583.431519,428.036865 C587.244019,427.716980 590.620972,427.341309 594.462158,427.038513 C609.899231,427.845917 624.871948,428.580383 640.126099,429.589233 C642.250244,429.993164 644.093140,430.122650 646.220581,430.474548 C650.674316,431.736420 654.843506,432.775970 659.332397,433.971832 C661.011963,434.469208 662.371704,434.810303 663.990662,435.402954 C666.785828,436.551758 669.321777,437.448975 672.046143,438.585022 C673.156799,439.179535 674.079041,439.535187 675.001343,439.890869 C674.760010,440.931244 674.518677,441.971649 673.879028,443.416687 C672.553406,444.951630 671.626038,446.081940 670.398193,447.397766 C659.389465,458.985565 652.358887,472.691132 645.422058,486.260590 C654.109985,489.630737 662.588623,492.610443 670.815430,496.172028 C691.131470,504.967346 710.084900,515.902893 725.261902,532.447388 C733.694519,541.639832 736.939270,552.263000 734.644409,564.688049 C731.077576,583.999329 726.958618,603.267090 724.701111,622.741943 C723.094849,636.598022 717.216248,646.748779 707.790222,656.814514 C664.474854,703.069214 625.087158,752.538757 590.486877,805.698853 C582.146057,818.513794 574.541321,831.807922 566.344360,845.085999 C564.402649,848.527222 562.714600,851.764038 560.779541,855.244873 C559.419556,857.508728 557.928040,859.411560 557.260864,861.569275 C554.697754,869.858032 549.654480,874.034485 540.269226,872.272827 C536.956238,872.244446 534.068237,872.288208 530.876099,872.254639 C529.323425,872.231812 528.075012,872.286377 526.455811,872.264893 C522.748962,872.277405 519.412903,872.365967 515.872620,872.383301 C515.668457,872.312073 515.242188,872.384644 515.132629,872.240417 C515.023071,872.096191 514.670105,872.014282 514.718567,871.598145 C514.986633,869.811523 515.206177,868.441162 515.590820,866.805664 C515.809387,866.130920 515.862915,865.721313 516.113281,865.018188 C516.618286,862.181213 516.926453,859.637817 517.556213,856.977417 C518.242065,855.571594 518.606262,854.282776 519.190491,852.685059 C519.734070,850.607117 520.057617,848.838074 520.534302,846.797852 C520.735901,846.117310 520.784485,845.707886 521.029663,845.005920 C521.455627,842.473633 521.684998,840.233887 522.103760,837.699951 C522.855225,835.935852 523.417297,834.465881 524.195923,832.698730 C524.661682,830.940186 524.910889,829.478943 525.352417,827.671875 C525.997375,825.257568 526.449951,823.188965 527.046631,820.969238 C527.339783,820.535461 527.310242,820.272827 527.146851,819.618652 C528.740601,812.925476 530.289673,806.643921 531.820496,800.265381 C531.802246,800.168396 531.835266,799.787659 531.945374,799.433228 C533.569519,793.307373 535.083557,787.535828 536.575195,781.737061 C536.552734,781.709900 536.595154,781.653564 536.802002,781.322266 C537.605225,778.359314 538.201538,775.727722 538.965820,772.791077 C539.076050,771.322998 539.018311,770.160034 539.180237,768.707275 C540.065430,766.638489 540.730957,764.859436 541.578857,762.819031 C541.881409,761.721008 542.001587,760.884399 542.338867,759.719727 C542.997192,757.294678 543.438477,755.197815 544.029358,752.908569 C544.070984,751.949280 543.963013,751.182190 543.949829,750.060669 C545.568787,744.522217 547.093018,739.338196 548.773926,733.852783 C549.144653,732.437988 549.358765,731.324646 549.730469,729.867126 C549.890320,727.536377 549.216370,725.212341 550.010681,723.621155 C553.613770,716.403198 553.955872,708.414795 556.110352,700.638611 C556.500671,699.962463 556.720459,699.475830 557.264709,698.690430 C558.669128,693.584717 559.749023,688.777832 561.027100,683.684326 C561.418274,682.260376 561.611145,681.123047 561.979248,679.649170 C562.558105,677.579651 562.961609,675.846863 563.558960,673.852173 C563.847656,672.731812 563.942566,671.873169 564.269775,670.719604 C565.728882,664.944763 566.955750,659.464844 568.388306,653.707581 C568.663025,652.757446 568.732056,652.084778 568.966919,651.048584 C569.719788,648.153870 570.306763,645.622620 571.072144,642.845581 C571.393921,641.816162 571.537354,641.032593 571.803955,639.937561 C572.248840,638.086121 572.570496,636.546143 573.052368,634.629028 C573.133789,633.167236 573.054993,632.082703 573.224243,630.700012 C574.233582,628.193970 574.994934,625.986023 575.893433,623.509277 C576.239502,622.247009 576.448486,621.253418 576.786377,619.945679 C577.224365,618.078308 577.533386,616.525208 578.039124,614.683289 C578.433838,613.258789 578.631836,612.123169 579.004639,610.661255 C579.440186,608.886230 579.700989,607.437500 580.199097,605.711304 C580.712891,603.991638 580.989441,602.549316 581.457153,600.886169 C581.706543,600.092224 581.764771,599.519104 581.985291,598.732178 C582.189575,598.001587 582.231567,597.484741 582.473511,596.632996 C582.754333,595.526855 582.835266,594.755737 583.139282,593.703125 C583.752502,591.269592 584.142639,589.117493 584.669556,586.553650 C584.953613,582.438110 585.100830,578.734253 585.335693,574.731445 C585.247375,573.631348 585.071472,572.830261 584.962830,571.680298 C584.831055,570.185181 584.632080,569.038818 584.450439,567.557129 C584.287292,566.815918 584.106750,566.409973 583.951904,565.621155 C581.646912,560.547302 579.316223,555.856323 576.761475,550.907959 C575.436035,549.232849 574.334656,547.815308 573.195557,546.245728 C573.036682,545.896240 572.860291,545.801331 572.434875,545.507019 C570.921204,544.202942 569.601257,543.200989 568.091919,541.957886 C561.820801,539.412170 555.739014,537.107727 549.456421,534.566284 C548.852783,534.295044 548.449951,534.260742 547.673096,534.082520 C546.242676,533.841675 545.186401,533.744690 543.781128,533.484497 C541.614014,533.236755 539.795898,533.152344 537.632202,532.913818 C529.855957,533.498291 522.425232,534.237000 514.646484,534.956299 C513.195251,535.252258 512.091980,535.567627 510.645325,535.846802 C508.825226,536.272156 507.348480,536.733643 505.496399,537.214600 C503.743469,537.782104 502.365784,538.330017 500.609802,538.828247 C493.006134,541.218018 487.675720,545.686707 484.755219,553.298462 C484.134979,555.113159 483.761993,556.630127 483.256836,558.438110 C482.793793,560.489441 482.462952,562.249817 481.952759,564.314331 C481.572693,565.763367 481.371948,566.908203 480.964996,568.354614 C480.498871,570.103394 480.238922,571.550537 479.745850,573.307739 C478.382202,578.756592 477.251648,583.895447 475.914978,589.335815 C475.454285,591.084595 475.199707,592.531738 474.723602,594.288818 C474.127747,596.364075 473.753387,598.129517 473.240234,600.131714 C473.057404,600.908997 473.013397,601.449402 472.754883,602.310059 C471.124847,608.747253 469.709351,614.864197 468.156952,621.298340 C468.001495,622.072510 467.982880,622.529541 467.736511,623.278625 C467.042572,626.053833 466.576416,628.536987 465.905914,631.304321 C465.506348,632.728455 465.311127,633.868408 464.907227,635.301086 C463.118927,642.693054 461.539307,649.792297 459.815338,657.013489 C459.498779,657.370056 459.496765,657.606018 459.453796,658.197937 C459.154572,659.368469 459.066437,660.184509 458.770691,661.284790 C458.372070,662.712585 458.181091,663.856079 457.741394,665.315308 C457.043152,668.007263 456.593628,670.383484 455.969177,673.017090 C455.403137,675.192078 455.011963,677.109558 454.434570,679.365601 C454.154175,680.466980 454.059967,681.229797 453.738464,682.261597 C453.335938,683.686707 453.160675,684.842773 452.769653,686.286499 C452.374664,687.731506 452.195435,688.888916 451.903717,690.132568 C451.660675,690.423889 451.702881,690.582764 451.695923,691.072021 C451.361328,692.307312 451.248688,693.166077 450.979858,694.247314 C450.775513,694.997437 450.727356,695.525024 450.471191,696.398315 C449.847137,699.711609 449.666534,702.735962 448.966461,705.634949 C447.478699,711.795837 445.720703,717.891418 443.901794,724.281738 C443.577240,725.373169 443.424408,726.196716 443.160126,727.319336 C443.061768,727.830750 443.074890,728.043091 442.946350,728.414307 C442.779510,728.977661 442.754303,729.382080 442.499329,730.166504 C441.970703,731.993958 441.671844,733.441467 441.237976,735.129150 C441.081451,735.913757 441.059998,736.458191 440.853149,737.326050 C440.138763,740.104980 439.609741,742.560364 438.899506,745.279846 C438.562897,746.368652 438.407501,747.193481 438.111877,748.375244 C437.639618,750.486328 437.307587,752.240356 436.758392,754.288757 C436.315918,756.037292 436.090637,757.491516 435.648712,759.238770 C434.983978,761.693604 434.535889,763.855408 433.926208,766.289307 C433.608276,767.381470 433.451965,768.201538 433.155945,769.382507 C432.709564,771.504578 432.402863,773.265808 431.917755,775.346008 C431.231049,778.115234 430.722717,780.565430 430.082458,783.358521 C429.823395,784.424194 429.696259,785.146912 429.379730,786.118164 C428.977081,787.592163 428.763824,788.817688 428.373108,790.382202 C428.128998,791.477600 428.062378,792.234009 427.832367,793.200073 C427.569366,793.917419 427.469727,794.424988 427.233032,795.262451 C427.087097,796.065918 427.078278,796.539551 426.877319,797.334473 C426.354523,799.396484 426.023834,801.137268 425.486755,803.187744 C424.981384,804.962646 424.682404,806.427673 424.233337,808.192993 C423.867615,809.596802 423.652039,810.700256 423.279419,812.121094 C422.774536,814.297363 422.426697,816.156250 421.896118,818.323792 C421.255127,820.762268 420.796844,822.892151 420.191681,825.369629 C419.977081,826.465027 419.909363,827.212891 419.613861,828.220337 C419.021820,830.306885 418.657562,832.133789 418.153625,834.289307 C417.919189,835.560730 417.824493,836.503479 417.494263,837.759277 C416.818481,840.379517 416.378235,842.686890 415.746857,845.288147 C415.373383,846.722229 415.191010,847.862427 414.814819,849.306030 C414.286194,851.022095 413.951355,852.434570 413.381104,854.103394 C413.018463,855.744324 412.891266,857.128967 412.525665,858.822693 C411.857056,861.421204 411.426910,863.710632 410.778259,866.305786 C409.162689,868.423096 411.259186,872.561707 406.346008,872.233032 C366.663696,872.152344 327.399506,872.126465 288.135406,872.155884 C273.499390,872.166809 258.863434,872.307007 244.043549,872.290771 C243.589920,872.127808 243.321747,872.056519 243.084930,871.570801 C243.803558,866.465820 244.492386,861.769470 245.511597,856.898315 C246.138916,855.522461 246.435822,854.321228 246.880280,852.833984 C247.338882,850.513062 247.649948,848.478210 248.046967,846.074463 C248.608398,843.780151 249.083878,841.854797 249.724518,839.646790 C250.214447,837.573792 250.539215,835.783325 250.997910,833.618347 C251.328995,832.203369 251.526154,831.162964 251.883057,829.812866 C252.394745,827.337646 252.746704,825.172058 253.240204,822.802734 C253.549759,822.276855 253.545853,821.956726 253.612061,821.334106 C255.192780,814.683167 256.531433,808.336731 258.005188,801.647522 C258.400879,799.864807 258.661438,798.424927 259.099915,796.642456 C259.580444,794.206726 259.883087,792.113525 260.226074,789.631226 C260.757080,787.537292 261.247711,785.832520 261.901672,783.834167 C262.390320,781.698975 262.715698,779.857300 263.209351,777.745972 C263.501465,776.642029 263.625336,775.807617 263.923737,774.613525 C264.375702,771.834351 264.653168,769.414795 264.988708,766.606384 C265.618896,764.510681 266.191010,762.803833 266.920319,760.812805 C267.351807,759.016785 267.626068,757.505005 268.038177,755.651672 C268.440063,753.871277 268.704071,752.432434 269.151001,750.650879 C269.536285,748.204224 269.738678,746.100159 269.991577,743.620056 C270.563293,741.860718 271.084534,740.477417 271.783752,738.782227 C272.178192,737.046814 272.394714,735.623352 272.769104,733.863403 C273.193787,732.061523 273.460571,730.596130 273.902100,728.833008 C274.430237,726.361450 274.783661,724.187500 275.326111,721.672668 C275.837402,719.527466 276.159668,717.723267 276.646545,715.616577 C277.062378,713.945496 277.313538,712.576782 277.734406,710.873535 C278.202423,709.067993 278.500671,707.596985 278.970276,705.837708 C279.448853,703.701660 279.756134,701.853882 280.230743,699.701111 C280.597321,698.263794 280.796570,697.131470 281.188629,695.669800 C281.745270,693.284485 282.109131,691.228699 282.644073,688.881104 C282.991302,687.259949 283.167419,685.930420 283.577515,684.291260 C284.197510,681.986877 284.583557,679.992188 285.119934,677.661682 C285.532593,675.888123 285.794922,674.450378 286.253296,672.693848 C286.730408,670.622070 287.011475,668.869080 287.490723,666.805847 C288.102539,664.331848 288.516174,662.168152 289.088196,659.642090 C289.166016,658.520020 289.085419,657.760132 289.054138,656.643372 C289.684814,654.515503 290.266205,652.744629 291.047974,650.648376 C291.598877,648.254883 291.949432,646.186646 292.467224,643.885071 C292.707306,643.087402 292.780151,642.523193 293.057312,641.627563 C293.692169,638.915710 294.122650,636.535278 294.714355,633.846313 C295.237091,631.689209 295.598602,629.840698 296.152802,627.681274 C296.577209,625.914673 296.808929,624.458984 297.216858,622.646362 C297.843140,619.896729 298.293182,617.503967 298.925781,614.832031 C299.065704,613.701599 299.023132,612.850159 299.023438,611.643005 C299.638245,609.529236 300.210205,607.771240 300.947693,605.718628 C301.132050,604.979797 301.150818,604.535583 301.348053,603.833984 C301.992218,600.384033 302.457947,597.191589 302.971863,593.637085 C303.105743,592.549866 303.191498,591.824768 303.632996,590.913696 C304.683075,587.485107 305.377350,584.242554 306.116760,580.624512 C306.080353,579.499329 305.998840,578.749695 306.117493,577.713135 C306.840820,575.943970 307.363983,574.461731 308.084229,572.648743 C308.645691,570.234131 309.010071,568.150269 309.552490,565.731079 C310.068329,563.648804 310.406158,561.901855 310.914185,559.873657 C311.339600,558.058411 311.594818,556.524353 312.016754,554.660400 C312.442932,552.883301 312.702362,551.435974 313.171204,549.688477 C313.611115,547.927307 313.841614,546.466431 314.273529,544.728699 C314.918762,541.997864 315.362579,539.543823 315.985229,536.783813 C316.079773,535.316345 315.995483,534.155029 316.099487,532.685120 C316.872375,530.583374 317.457001,528.790222 318.216675,526.673950 C318.625305,524.912415 318.858826,523.473938 319.313293,521.700439 C319.909515,519.190674 320.284698,517.015930 320.790131,514.639648 C320.986542,513.810242 321.052734,513.182434 321.362976,512.375732 C321.424622,511.737701 321.242218,511.278473 321.055237,510.607239 C321.050598,510.395172 320.912231,509.994232 321.103760,509.687744 C321.867432,507.587341 322.439606,505.793396 323.209106,503.710388 C323.581299,502.279297 323.756256,501.137268 324.119568,499.653320 C324.699829,497.235382 325.091797,495.159332 325.651062,492.783295 C326.138885,490.650085 326.459381,488.816925 326.933838,486.630798 C327.388275,484.518829 327.688751,482.759796 328.052734,480.612976 C328.154755,479.182587 328.193207,478.140076 328.562866,476.963806 C329.267792,475.221741 329.641541,473.613434 330.214569,471.769470 C330.566498,469.352905 330.719116,467.172028 330.980591,464.610840 C331.688477,461.820374 332.287445,459.410156 332.934692,456.667267 C332.950775,455.889709 332.918610,455.444885 333.013916,454.661621 C333.775299,452.547882 334.409210,450.772552 335.226562,448.743835 C335.444000,448.080688 335.477997,447.670990 335.649780,446.969482 C337.268707,439.446472 338.749878,432.215302 340.434448,424.705231 C340.776367,423.290985 340.914825,422.155579 341.284363,420.684875 C342.618500,414.883179 343.721588,409.416809 345.032410,403.649719 C345.473175,401.897675 345.706268,400.446320 346.140350,398.643799 C346.873749,394.136566 347.406158,389.980591 348.117004,385.630737 C348.579285,384.947845 348.863159,384.458832 349.404846,383.660645 C349.731476,382.555054 349.800293,381.758575 350.047607,380.740631 C350.390503,379.422302 350.554901,378.325470 350.854126,376.921997 C351.550690,373.988464 352.112457,371.361511 352.758850,368.528290 C352.904999,368.025879 352.887787,367.734436 352.945435,367.082001 C353.679138,363.795471 354.259247,360.874573 355.007416,357.766266 C355.327118,356.774841 355.478760,355.970856 355.751953,354.840393 C356.192444,352.658844 356.511414,350.803741 356.983337,348.782013 C357.210876,348.041016 357.285492,347.466644 357.516632,346.582275 C357.673645,345.813843 357.674133,345.355408 357.722412,344.811462 C357.770233,344.725983 357.754395,344.530701 357.916382,344.186707 C358.653625,340.937134 359.228912,338.031525 359.933258,334.948181 C360.084625,334.342896 360.106903,333.915344 360.377136,333.305786 C360.401031,332.673889 360.176941,332.223907 359.950775,331.732025 C359.948669,331.690094 359.849060,331.614014 359.941467,331.282013 C360.636597,329.283844 361.239288,327.617676 362.017853,325.702393 C362.385254,324.085480 362.576813,322.717651 362.939270,321.018005 C363.656158,318.047791 364.202118,315.409393 364.876862,312.525940 C365.237030,311.179993 365.468414,310.079102 365.827209,308.613464 C366.263794,306.486847 366.572968,304.724945 367.053955,302.713806 C367.414368,301.106873 367.602997,299.749268 367.940369,298.078735 C369.393097,291.510529 370.697113,285.255280 372.212830,278.718079 C372.577759,277.287598 372.730988,276.139008 373.071075,274.624207 C373.753601,271.762146 374.249268,269.266296 374.863892,266.525513 C375.089752,265.560669 375.196655,264.840790 375.506714,263.817413 C376.090454,261.328522 376.471100,259.143127 377.036407,256.643860 C377.431305,254.882919 377.641571,253.435822 378.023010,251.653473 C378.451752,249.840607 378.709290,248.362976 379.090729,246.818100 C379.214600,246.750854 379.297211,246.484375 379.297211,246.484375 C379.297211,246.484375 379.097748,246.289658 379.322937,245.955231 C381.092010,244.540619 382.635895,243.460403 384.613708,242.369324 C390.398682,241.449371 395.749756,240.540314 401.507080,239.625809 C403.987732,239.202332 406.062103,238.784302 408.563721,238.389114 C411.997345,237.854218 415.003754,237.296478 418.371582,236.759018 C420.153351,236.481339 421.573700,236.183365 423.386688,235.926361 C426.219360,235.482895 428.659363,234.998459 431.493439,234.505432 C433.644531,234.140228 435.401581,233.783630 437.591797,233.405914 C441.353546,232.809052 444.682129,232.233292 448.320679,231.683090 C449.420349,231.470734 450.210022,231.232819 451.396454,231.040527 C454.233276,230.609253 456.673340,230.132370 459.548798,229.638443 C476.503815,226.727692 493.032715,223.885635 509.540466,220.925613 C525.705139,218.027115 541.848267,215.008484 558.000854,212.042587 z"/>
  <path fill="#FEAC03" d="M947.066223,821.197388 C946.083008,821.923645 945.099792,822.649902 943.648865,823.740356 C940.379822,826.562012 937.578613,829.019470 934.777344,831.476868 C932.467041,833.376709 930.156799,835.276550 927.351318,837.577515 C924.813354,839.780029 922.770630,841.581421 920.727844,843.382812 C917.915588,845.702881 915.103271,848.022888 911.805481,850.728577 C908.615356,853.432983 905.910767,855.751831 903.206177,858.070557 C900.359680,860.415649 897.513184,862.760681 894.175415,865.493774 C892.657104,866.855408 891.630066,867.828979 890.603027,868.802490 C887.135132,871.600342 883.667236,874.398193 879.736023,877.612793 C877.411316,879.721191 875.549927,881.412903 873.688538,883.104614 C870.238342,885.883545 866.788147,888.662476 862.863403,891.824707 C860.988892,893.493896 859.588745,894.779724 858.188660,896.065674 C855.530823,898.131104 852.872925,900.196533 849.770386,902.711060 C846.500244,905.665527 843.674744,908.171021 840.849243,910.676514 C838.983582,912.146057 837.117981,913.615601 834.747925,915.463745 C831.053162,918.636658 827.862793,921.430908 824.672485,924.225098 C823.387878,925.202637 822.103333,926.180176 820.318237,927.557739 C816.423401,930.909973 813.029114,933.862183 809.634888,936.814331 C808.757568,937.489624 807.880310,938.164917 806.520386,939.207886 C802.365662,942.737183 798.693481,945.898926 795.021301,949.060669 C793.729919,950.026306 792.438538,950.992065 790.656250,952.367676 C787.326111,955.229126 784.486816,957.680542 781.647522,960.132019 C780.482544,961.059387 779.317566,961.986694 777.649536,963.328369 C772.172180,968.016541 767.197998,972.290344 762.223755,976.564087 C761.511597,977.059265 760.799500,977.554443 759.631104,978.426636 C756.333008,981.241394 753.491272,983.679260 750.649536,986.117188 C749.478638,987.041565 748.307800,987.965942 746.634766,989.304321 C741.739380,993.477600 737.346252,997.237000 732.953064,1000.996338 C732.375427,1001.405396 731.797852,1001.814514 730.751709,1002.570679 C727.434448,1005.361145 724.585571,1007.804443 721.736694,1010.247681 C719.895203,1011.595093 718.053650,1012.942505 715.793823,1014.764526 C712.473450,1017.768250 709.571350,1020.297302 706.669250,1022.826355 C705.174072,1023.941406 703.678894,1025.056396 701.716064,1026.576172 C698.751038,1029.129272 696.253784,1031.277710 693.756531,1033.426147 C691.241577,1035.369507 688.726562,1037.312866 685.775024,1039.692871 C683.800415,1041.491943 682.262390,1042.854248 680.724365,1044.216675 C678.228149,1046.194092 675.731934,1048.171509 672.736267,1050.542969 C670.044922,1052.896851 667.853027,1054.856445 665.661072,1056.816040 C663.228088,1058.710571 660.795105,1060.605225 657.887085,1062.879761 C655.848938,1064.624390 654.285950,1065.989136 652.722900,1067.353760 C649.889038,1069.621704 647.055237,1071.889648 643.737915,1074.574097 C640.836792,1076.993774 638.419250,1078.996948 636.001770,1081.000122 C635.073242,1081.588501 634.144653,1082.176880 632.024658,1083.520142 C633.769104,1079.567383 635.033325,1076.703003 636.605713,1073.231445 C637.920105,1070.080688 638.926208,1067.537231 639.932312,1064.993652 C640.923584,1062.604614 641.914917,1060.215454 643.253296,1057.246582 C644.863342,1053.495728 646.126282,1050.324951 647.389221,1047.154053 C647.932617,1045.986572 648.476013,1044.818970 649.158936,1043.204346 C649.462830,1042.557495 649.517639,1042.331177 649.462891,1042.078491 C649.665161,1041.683228 649.867493,1041.288086 650.359253,1040.331421 C651.403992,1037.844360 652.159302,1035.918701 652.914551,1033.993164 C652.914612,1033.993164 653.186340,1033.578491 653.478027,1033.127441 C654.185364,1031.451294 654.601013,1030.226074 655.016663,1029.000977 C655.390259,1028.236816 655.763794,1027.472778 656.424683,1026.184692 C656.978394,1024.838379 657.244812,1024.015869 657.511169,1023.193420 C657.752808,1022.680420 657.994507,1022.167419 658.537231,1021.155518 C661.576843,1013.772522 664.315491,1006.888489 667.054138,1000.004456 C667.526489,999.258606 667.998779,998.512817 668.752075,997.230774 C669.328918,995.794189 669.624878,994.893738 669.920837,993.993347 C669.920837,993.993347 670.145386,993.653015 670.407776,993.233704 C671.116394,991.543640 671.562622,990.272949 672.008911,989.002197 C672.232422,988.643188 672.455933,988.284119 672.939331,987.361145 C673.625122,985.574158 674.051025,984.351135 674.476929,983.128052 C674.701965,982.686951 674.927002,982.245850 675.428162,981.323242 C677.521179,976.327332 679.338074,971.812805 681.154907,967.298279 C681.776611,966.097229 682.398376,964.896118 683.268311,963.114746 C684.198853,960.806702 684.881165,959.078979 685.563477,957.351257 C686.074036,956.255737 686.584595,955.160217 687.409668,953.470276 C688.313660,951.312744 688.903076,949.749695 689.492554,948.186584 C689.740479,947.675171 689.988342,947.163818 690.516968,946.151001 C692.813538,940.752563 694.829407,935.855652 696.845215,930.958679 C697.049866,930.582092 697.254517,930.205505 697.736267,929.298523 C698.329773,927.844421 698.646179,926.920593 698.962524,925.996826 C699.477478,924.964417 699.992554,923.932007 700.814941,922.338989 C702.125427,919.190308 703.128540,916.602295 704.131653,914.014221 C704.131653,914.014221 704.337708,913.814087 704.580078,913.421509 C705.350647,911.406494 705.878845,909.784119 706.407043,908.161743 C707.740112,905.426880 709.073181,902.691956 710.711182,899.374268 C712.777588,894.544312 714.538879,890.297302 716.300171,886.050232 C716.723450,885.292725 717.146790,884.535217 717.833008,883.259399 C718.241760,882.214294 718.387634,881.687439 718.533508,881.160645 C718.933167,880.405884 719.332825,879.651123 720.016968,878.344971 C720.968933,876.202454 721.636353,874.611328 722.591125,872.335205 C709.093933,872.335205 696.480835,872.339111 683.867676,872.334473 C648.571716,872.321411 613.275696,872.304810 577.688232,872.210144 C576.953247,871.420288 576.509827,870.709961 576.265930,869.731812 C584.122070,857.598938 591.632263,845.636414 599.459534,833.885071 C641.855957,770.233643 690.181702,711.363159 742.781372,655.907898 C776.362549,620.503601 809.610718,584.783386 842.996277,549.193604 C848.889648,542.911072 853.385803,535.775757 855.687988,527.409424 C859.877136,512.185303 852.848328,497.532990 838.274170,493.650787 C830.755432,491.647980 822.422546,491.142517 814.659363,491.935730 C797.566711,493.682098 783.898376,503.036438 771.465637,514.259949 C765.839478,519.338806 760.427856,524.655396 754.924866,529.858521 C734.384155,499.992157 704.847778,483.104187 672.152527,470.596466 C674.799805,466.237427 677.211609,462.266113 679.860779,458.087891 C682.477356,454.400787 684.856567,450.920593 687.235840,447.440369 C688.495361,445.866669 689.754944,444.292969 691.398132,442.225891 C693.427185,439.486206 695.072632,437.239838 696.718018,434.993469 C702.067139,429.874084 707.416199,424.754669 713.269775,419.258270 C716.244202,416.718018 718.714111,414.554718 721.183960,412.391418 C721.345154,412.314056 721.506409,412.236725 722.039734,411.930969 C722.689392,411.552521 722.784973,411.325775 722.698608,411.022278 C730.405396,403.127777 740.169983,398.287659 749.640442,393.059021 C756.046997,389.522003 762.457397,385.804993 769.267639,383.230957 C778.832336,379.615845 788.723999,376.827820 798.566467,374.001617 C803.697083,372.528351 809.021790,371.730988 814.908203,370.482208 C816.274963,370.072662 816.992371,369.809235 817.709778,369.545837 C820.549988,369.341400 823.390137,369.136993 826.944824,368.762573 C828.559265,368.331360 829.459229,368.070221 830.359192,367.809021 C830.359192,367.809021 830.596497,367.840546 831.059937,367.892029 C836.011963,367.618256 840.500610,367.293030 844.989258,366.967773 C849.030334,366.984314 853.071411,367.000885 857.917175,367.138000 C863.551880,367.422882 868.381836,367.587250 873.211853,367.751617 C873.211853,367.751617 873.414612,367.788483 873.695801,367.961639 C874.658997,368.295319 875.341125,368.455811 876.023193,368.616333 C882.760376,369.718292 889.497498,370.820282 896.919739,372.093018 C898.740601,372.457184 899.876404,372.650604 901.012207,372.844025 C909.276855,375.588165 917.687683,377.967590 925.756775,381.199829 C931.500854,383.500702 936.785034,386.949615 942.781128,390.211792 C944.194824,390.978790 945.101807,391.420197 946.008728,391.861572 C950.380859,394.978882 954.752991,398.096222 959.600708,401.630615 C961.734680,403.315735 963.393066,404.583740 965.051453,405.851776 C968.776245,409.581848 972.501038,413.311890 976.634399,417.520874 C979.645569,421.093201 982.248108,424.186554 984.850708,427.279968 C985.383118,428.114594 985.915527,428.949219 986.735107,430.201050 C987.454773,431.155396 987.887390,431.692596 988.320068,432.229797 C989.002380,433.418121 989.684692,434.606445 990.704956,436.326233 C991.975281,438.333893 992.907593,439.810059 993.839905,441.286224 C993.839905,441.286224 993.870972,441.685669 994.028931,442.138428 C994.729492,443.415436 995.272156,444.239716 995.814819,445.063995 C996.117126,445.861450 996.419373,446.658905 996.933350,448.087646 C998.673279,452.323730 1000.201477,455.928467 1001.729614,459.533203 C1002.506226,462.551880 1003.282837,465.570496 1004.273193,469.218353 C1004.743958,470.834076 1005.001038,471.820557 1005.258118,472.807068 C1005.666992,475.308716 1006.075928,477.810364 1006.647522,481.106445 C1007.268494,487.270538 1007.726746,492.640198 1008.184937,498.009827 C1008.134766,499.073944 1008.084595,500.138062 1008.021118,502.035278 C1007.634827,508.575226 1007.261841,514.282043 1006.888794,519.988892 C1006.475647,521.743774 1006.062561,523.498718 1005.464966,525.921265 C1005.075745,527.670776 1004.870911,528.752625 1004.666138,529.834473 C1004.223145,531.348572 1003.780212,532.862610 1003.172729,534.986328 C1002.911926,536.226868 1002.815735,536.857788 1002.719482,537.488770 C1002.128479,539.082642 1001.537415,540.676514 1000.722046,542.905151 C1000.139771,544.619507 999.781799,545.699280 999.423828,546.778931 C999.216431,547.238770 999.009094,547.698547 998.563477,548.615723 C998.122253,549.873352 997.919373,550.673584 997.716492,551.473877 C997.408203,552.057251 997.099976,552.640625 996.481323,553.769470 C989.610657,569.875671 980.120667,583.636353 969.955811,596.982361 C968.991150,598.036072 968.026428,599.089783 966.665649,600.609131 C962.662476,605.313110 959.055298,609.551392 955.448120,613.789612 C947.234070,622.245605 939.020020,630.701599 930.350708,639.597656 C927.867432,642.187744 925.839294,644.337708 923.811157,646.487671 C922.163452,648.055054 920.515686,649.622375 918.415039,651.627563 C906.564209,663.835571 895.166138,675.605713 883.768127,687.375916 C881.637146,689.452026 879.506104,691.528076 876.943848,694.033203 C875.875122,695.255371 875.237671,696.048401 874.600159,696.841431 C864.664673,706.946167 854.729187,717.050964 844.405151,727.647278 C839.998352,732.420166 835.980164,736.701477 831.707642,741.020203 C831.286560,741.341187 831.119690,741.624695 830.680420,742.050537 C830.221375,742.714050 830.034729,743.235229 829.848145,743.756409 C830.904358,743.738586 831.960571,743.720703 833.467651,743.804138 C841.906860,743.817078 849.895203,743.728699 857.883545,743.640320 C858.381836,743.705078 858.880188,743.769836 860.170532,743.824707 C864.642944,743.794556 868.323303,743.774353 872.003723,743.754150 C878.371033,743.850159 884.738403,743.946167 891.932922,744.134277 C898.508301,744.155334 904.256470,744.084290 910.004639,744.013184 C910.447388,744.078857 910.890137,744.144592 912.025452,744.280334 C916.819397,744.254028 920.920776,744.157715 925.022156,744.061462 C943.159790,744.262817 961.296997,744.506897 979.435120,744.651062 C992.255798,744.752930 1005.077515,744.719543 1018.738525,744.786133 C1022.722778,744.732056 1025.867310,744.638489 1029.011841,744.544922 C1029.456665,744.614319 1029.901489,744.683777 1030.998535,744.768372 C1032.100464,744.729309 1032.550415,744.675171 1033.000244,744.620972 C1033.593384,744.850220 1034.186523,745.079468 1034.904053,745.356750 C1034.024048,746.344727 1033.271484,747.189453 1032.046509,748.426697 C1020.603821,758.274414 1009.633606,767.729614 998.663330,777.184814 C997.498779,778.122009 996.334167,779.059204 994.674377,780.407227 C990.351318,784.158264 986.523376,787.498474 982.695435,790.838623 C981.448547,791.812683 980.201660,792.786682 978.468750,794.145142 C974.225830,797.803040 970.468811,801.076538 966.711670,804.349976 C965.875854,804.964233 965.040039,805.578552 963.721558,806.576111 C957.848022,811.705383 952.457153,816.451416 947.066223,821.197388 z"/>
</svg>
